<svg t="1684739400856" class="icon" viewBox="0 0 1024 1024" version="1.1" xmlns="http://www.w3.org/2000/svg" p-id="6551" width="128" height="128"><path d="M691.2 273.066667c-14.114133 0-25.6 11.485867-25.6 25.6s11.485867 25.6 25.6 25.6 25.6-11.485867 25.6-25.6-11.485867-25.6-25.6-25.6zM443.733333 298.666667c0 14.114133 11.485867 25.6 25.6 25.6s25.6-11.485867 25.6-25.6-11.485867-25.6-25.6-25.6-25.6 11.485867-25.6 25.6z m7.6288-95.658667c30.037333-15.018667 77.243733-15.274667 77.7216-15.274667A17.066667 17.066667 0 0 0 546.133333 170.666667c0-3.208533-0.904533-11.451733-8.328533-24.610134 18.824533 8.430933 30.242133 19.456 30.395733 19.6096a17.578667 17.578667 0 0 0 24.132267 0c0.187733-0.170667 11.502933-11.3152 30.481067-19.7632C615.3216 159.146667 614.4 167.441067 614.4 170.666667a17.066667 17.066667 0 0 0 17.0496 17.066666c0.477867 0 47.684267 0.256 77.7216 15.274667a17.117867 17.117867 0 0 0 22.903467-7.645867 17.083733 17.083733 0 0 0-7.645867-22.903466c-21.2992-10.6496-47.837867-15.274667-67.106133-17.3056a182.784 182.784 0 0 1 20.343466-23.620267A17.066667 17.066667 0 0 0 665.6 102.4c-39.287467 0-69.563733 17.4592-85.333333 29.0816C564.497067 119.8592 534.2208 102.4 494.933333 102.4a17.1008 17.1008 0 0 0-12.066133 29.1328c9.5744 9.591467 16.042667 17.476267 20.394667 23.620267-19.285333 2.013867-45.858133 6.656-67.157334 17.3056a17.083733 17.083733 0 0 0 15.2576 30.549333z m201.591467 377.105067c-1.4848 0.068267-2.952533 0.1536-4.420267 0.1536-32.290133 0-54.562133-16.622933-68.266666-36.420267-13.704533 19.797333-35.976533 36.420267-68.266667 36.420267-1.467733 0-2.935467-0.085333-4.420267-0.1536C519.543467 596.514133 541.44 614.4 580.266667 614.4c38.826667 0 60.7232-17.885867 72.686933-34.286933zM580.266667 477.866667c16.5888 0 32.1536-20.753067 33.962666-32.1024C607.778133 443.733333 591.4624 443.733333 580.266667 443.733333c-11.195733 0-27.4944 0-33.9456 2.030934C548.1472 457.1648 563.712 477.866667 580.266667 477.866667z m220.074666-246.562134C801.092267 232.840533 819.2 269.6704 819.2 324.266667c0 40.721067-20.821333 66.1504-40.942933 90.743466-18.107733 22.135467-36.795733 45.038933-44.4928 82.363734-0.682667 35.566933-15.701333 57.8048-36.1984 70.161066C687.684267 598.715733 653.380267 648.533333 580.266667 648.533333c-73.1136 0-107.4176-49.8176-117.2992-80.9984-20.497067-12.356267-35.515733-34.594133-36.1984-70.161066-7.697067-37.3248-26.385067-60.228267-44.4928-82.363734C362.154667 390.417067 341.333333 364.987733 341.333333 324.266667c0-54.596267 18.107733-91.426133 18.858667-92.962134a17.066667 17.066667 0 0 1 30.5664 15.2064C390.6048 246.818133 375.466667 278.1696 375.466667 324.266667c0 28.5184 14.660267 46.4384 33.2288 69.137066 11.2128 13.687467 23.176533 28.535467 33.2288 47.018667 3.2768-4.949333 6.058667-8.004267 6.8096-8.7552a17.0496 17.0496 0 1 1 24.132266 24.132267c-0.3072 0.341333-12.066133 13.2096-12.066133 39.133866 0 42.308267 27.835733 51.2 51.2 51.2 29.6448 0 42.990933-22.4768 48.2304-37.888C531.694933 497.476267 512 465.732267 512 443.733333c0-0.682667 0.238933-1.143467 0.273067-1.792 0.034133-0.341333-0.1024-0.6656-0.034134-1.024l17.066667-102.4a17.066667 17.066667 0 1 1 33.655467 5.632l-11.093334 66.525867A283.204267 283.204267 0 0 1 580.266667 409.6c9.233067 0 19.063467 0.119467 28.398933 1.0752l-11.093333-66.525867a17.066667 17.066667 0 1 1 33.655466-5.632l17.066667 102.4c0.068267 0.3584-0.068267 0.682667-0.034133 1.024 0.034133 0.648533 0.273067 1.109333 0.273066 1.792 0 21.998933-19.694933 53.742933-48.2304 64.512 5.239467 15.4112 18.5856 37.888 48.2304 37.888 23.364267 0 51.2-8.891733 51.2-51.2 0-25.924267-11.758933-38.792533-12.253866-39.3216a17.169067 17.169067 0 0 1 0.494933-24.029866 16.9472 16.9472 0 0 1 23.825067 0.085333c0.750933 0.750933 3.5328 3.805867 6.8096 8.7552 10.052267-18.4832 22.016-33.3312 33.2288-47.018667C770.4064 370.705067 785.066667 352.785067 785.066667 324.266667c0-46.626133-15.104-77.397333-15.274667-77.704534a17.083733 17.083733 0 0 1 30.549333-15.2576zM921.6 307.2c0-48.64-10.154667-89.378133-31.9488-128.170667a17.066667 17.066667 0 0 1 2.816-20.4288c1.041067-1.0752 25.685333-27.118933 28.808533-79.377066-30.088533-11.554133-51.677867-3.1744-64.2048 5.393066 9.045333 7.4752 17.544533 15.4112 25.412267 23.808a17.066667 17.066667 0 0 1-24.917333 23.313067C798.651733 68.795733 700.16 34.133333 580.266667 34.133333c-120.0128 0-218.538667 34.7136-277.4016 97.757867a17.066667 17.066667 0 0 1-24.951467-23.313067c8.0384-8.6016 16.7424-16.725333 26.0096-24.3712-13.021867-8.482133-34.9184-16.366933-64.6656-4.983466 3.1232 52.258133 27.784533 78.318933 28.893867 79.4624 5.256533 5.4272 6.417067 13.755733 2.730666 20.3264-20.718933 36.949333-30.907733 75.5712-31.880533 121.053866a159.744 159.744 0 0 1 39.458133 8.004267 17.1008 17.1008 0 0 1 2.235734 31.470933c-14.2336 7.1168-26.2144 18.653867-35.6864 34.372267 15.291733 86.442667 59.409067 174.250667 119.552 238.353067a160.2048 160.2048 0 0 1 41.693866-14.592 17.066667 17.066667 0 0 1 19.899734 20.872533 501.76 501.76 0 0 0-8.362667 41.079467c40.738133 29.883733 83.848533 48.196267 128.392533 54.545066 11.52-9.028267 18.9952-22.4256 19.080534-22.5792 3.0208-5.563733 8.635733-9.284267 15.223466-8.925866 6.3488 0.085333 12.117333 3.669333 14.984534 9.3184 0.0512 0.1024 7.0144 13.346133 18.722133 22.203733 44.578133-6.314667 87.7568-24.644267 128.546133-54.562133a507.562667 507.562667 0 0 0-8.362666-41.079467 17.0496 17.0496 0 0 1 19.899733-20.872533c14.336 2.850133 28.296533 7.748267 41.693867 14.592 27.4432-29.201067 51.4048-62.976 71.389866-100.642134-2.8672-29.218133-7.406933-56.388267-13.5168-80.810666-1.416533-5.6832 0.170667-11.690667 4.1984-15.9232a16.981333 16.981333 0 0 1 15.701334-4.949334 160.682667 160.682667 0 0 1 31.112533 9.591467C915.968 381.2352 921.6 343.534933 921.6 307.2z m3.310933-134.638933C945.902933 213.589333 955.733333 256.699733 955.733333 307.2c0 45.960533-8.209067 93.713067-24.388266 141.960533a17.0496 17.0496 0 0 1-24.746667 9.335467 131.003733 131.003733 0 0 0-13.2608-6.7584c3.6864 19.456 6.519467 40.123733 8.4992 61.781333 0.290133 3.242667-0.3584 6.5024-1.860267 9.403734-24.149333 46.626133-54.050133 87.9104-88.814933 122.709333a17.083733 17.083733 0 0 1-21.026133 2.474667 137.216 137.216 0 0 0-16.2816-8.618667c1.536 8.1408 2.935467 16.520533 4.1984 25.1392a17.066667 17.066667 0 0 1-6.417067 15.957333c-49.954133 38.775467-103.645867 61.764267-159.607467 68.3008a17.2544 17.2544 0 0 1-10.632533-2.235733 90.538667 90.538667 0 0 1-21.282133-17.749333 94.190933 94.190933 0 0 1-20.736 17.595733 17.066667 17.066667 0 0 1-10.871467 2.389333c-55.9616-6.536533-109.653333-29.525333-159.5904-68.3008a17.066667 17.066667 0 0 1-6.434133-15.957333c1.262933-8.6016 2.6624-16.9984 4.1984-25.1392a138.752 138.752 0 0 0-16.298667 8.618667 17.066667 17.066667 0 0 1-21.009067-2.474667C277.333333 573.5424 226.645333 474.350933 210.312533 373.469867a17.015467 17.015467 0 0 1 1.8432-10.820267c5.870933-10.888533 12.6464-20.48 20.309334-28.757333a106.837333 106.837333 0 0 0-9.352534 0.119466 17.066667 17.066667 0 0 1-18.0224-16.605866l-0.119466-3.413334C204.885333 311.722667 204.8 309.4528 204.8 307.2c0-49.7152 10.103467-93.883733 30.8224-134.621867C224.119467 156.552533 204.8 121.7024 204.8 68.266667c0-6.468267 3.652267-12.373333 9.437867-15.274667 52.974933-26.487467 95.761067-8.789333 118.562133 10.257067C396.8512 22.135467 482.167467 0 580.266667 0c98.423467 0 183.995733 22.3232 248.1664 63.709867 22.152533-19.268267 64.4608-37.393067 117.8624-10.717867 5.7856 2.901333 9.437867 8.8064 9.437866 15.274667 0 53.418667-19.3024 88.2688-30.8224 104.2944z m-96.375466 717.277866C839.338667 864.068267 853.333333 817.732267 853.333333 750.933333c0-29.883733-7.850667-56.183467-23.3472-78.199466a17.066667 17.066667 0 1 0-27.904 19.6608C813.448533 708.522667 819.2 728.2176 819.2 750.933333c0 95.095467-30.993067 143.7184-31.266133 144.128A17.066667 17.066667 0 0 0 802.133333 921.6c51.2 0 51.2 25.685333 51.2 34.133333 0 22.408533-25.7536 34.133333-51.2 34.133334h-17.066666a17.066667 17.066667 0 0 0 0 34.133333h17.066666c49.442133 0 85.333333-28.706133 85.333334-68.266667 0-35.140267-21.572267-58.641067-58.9312-65.8944zM120.1664 550.434133a36.522667 36.522667 0 0 0-13.568 13.568c-4.795733 8.328533-4.590933 15.36-3.703467 16.878934 13.943467-0.6144 17.066667-10.001067 17.271467-17.885867v-12.561067zM392.533333 1006.933333a17.066667 17.066667 0 0 1-17.066666 17.066667h-17.066667c-49.442133 0-85.333333-28.706133-85.333333-68.266667 0-35.140267 21.572267-58.641067 58.9312-65.8944-9.028267-21.5552-20.189867-57.685333-23.637334-107.946666-18.5856-5.2224-52.206933-18.944-77.431466-53.282134-30.037333-40.925867-38.741333-97.604267-25.856-168.465066 4.864-26.709333-7.458133-39.816533-20.599467-43.178667-10.973867-2.833067-24.251733 0.8704-30.173867 15.1552V563.2c0 20.5824-13.636267 51.2-51.2 51.2-10.786133 0-20.224-4.1984-26.555733-11.8272C71.133867 596.053333 68.266667 587.451733 68.266667 577.706667c0-28.023467 23.022933-58.948267 57.361066-64.733867 14.353067-26.794667 43.349333-35.2256 67.328-29.0816 27.921067 7.150933 54.135467 35.976533 45.704534 82.363733-11.144533 61.269333-4.488533 109.090133 19.797333 142.148267a108.9536 108.9536 0 0 0 49.1008 37.239467c0.904533-27.6992 8.465067-52.309333 23.057067-73.0112a17.066667 17.066667 0 0 1 27.904 19.6608C347.118933 708.471467 341.333333 728.183467 341.333333 750.933333c0 95.095467 30.993067 143.7184 31.317334 144.213334A17.117867 17.117867 0 0 1 358.4 921.6c-51.2 0-51.2 25.685333-51.2 34.133333 0 22.408533 25.7536 34.133333 51.2 34.133334h17.066667a17.066667 17.066667 0 0 1 17.066666 17.066666z m358.4-51.2c0 39.560533-35.8912 68.266667-85.333333 68.266667h-17.066667a85.282133 85.282133 0 0 1-68.266666-34.184533A85.282133 85.282133 0 0 1 512 1024h-17.066667c-49.442133 0-85.333333-28.706133-85.333333-68.266667 0-37.888 25.053867-62.225067 67.9424-67.2768a1043.746133 1043.746133 0 0 0-8.157867-100.949333 17.0496 17.0496 0 1 1 33.826134-4.488533 1060.352 1060.352 0 0 1 8.465066 104.448H512a17.066667 17.066667 0 0 1 0 34.133333h-17.066667c-51.2 0-51.2 25.685333-51.2 34.133333 0 22.408533 25.7536 34.133333 51.2 34.133334h17.066667c28.228267 0 51.2-22.971733 51.2-51.2v-136.533334a17.066667 17.066667 0 0 1 34.133333 0v136.533334c0 28.228267 22.971733 51.2 51.2 51.2h17.066667c25.4464 0 51.2-11.7248 51.2-34.133334 0-8.448 0-34.133333-51.2-34.133333h-17.066667a17.066667 17.066667 0 0 1 0-34.133333h0.324267c0.648533-21.282133 2.577067-60.228267 8.465067-104.618667 1.2288-9.352533 9.898667-15.837867 19.1488-14.677333a17.032533 17.032533 0 0 1 14.677333 19.1488 1039.3088 1039.3088 0 0 0-8.157867 101.12C725.879467 893.508267 750.933333 917.845333 750.933333 955.733333z" fill="#fa419c" p-id="6552"></path></svg>